<svg width="255" height="74" viewBox="0 0 255 74" fill="none" xmlns="http://www.w3.org/2000/svg">
<rect x="9.83035" y="37.1578" width="14.6539" height="14.3158" fill="#0093FD"/>
<rect x="15.8643" y="25.3684" width="10.3439" height="10.1053" fill="black"/>
<rect x="0.348404" y="46.421" width="7.75793" height="7.57894" fill="#FD6A00"/>
<rect x="27.9321" y="31.2632" width="12.0679" height="11.7895" fill="#FD6A00"/>
<rect x="26.2082" y="46.4211" width="6.03394" height="5.89473" fill="black"/>
<rect x="27.9321" y="22" width="6.03394" height="5.89473" fill="#0093FD"/>
<rect x="2.07235" y="31.2632" width="6.03394" height="5.89473" fill="black"/>
<path d="M58.1099 54H44.0459V21.84H57.6299C63.1659 21.84 67.1499 23.088 69.5819 25.584C72.0139 28.08 73.2299 32.08 73.2299 37.584C73.2299 43.056 72.0619 47.168 69.7259 49.92C67.3899 52.64 63.5179 54 58.1099 54ZM61.9979 38.112C61.9979 35.232 61.6939 33.312 61.0859 32.352C60.5099 31.392 59.1979 30.912 57.1499 30.912H55.1819V44.928H57.1499C58.8139 44.928 60.0459 44.512 60.8459 43.68C61.6139 42.848 61.9979 40.992 61.9979 38.112ZM72.8346 54L79.9386 21.84H96.7866L104.035 54H92.8026L91.8906 50.304H84.5466L83.7786 54H72.8346ZM87.8106 30.576L85.9866 41.808H90.7386L89.0106 30.576H87.8106ZM101.444 30.912V21.84H125.444V30.912H119.204V54H108.068V30.912H101.444ZM122.991 54L130.095 21.84H146.943L154.191 54H142.959L142.047 50.304H134.703L133.935 54H122.991ZM137.967 30.576L136.143 41.808H140.895L139.167 30.576H137.967ZM165.64 21.84H180.184C188.024 21.84 191.944 24.496 191.944 29.808C191.944 31.824 191.72 33.376 191.272 34.464C190.856 35.552 189.976 36.576 188.632 37.536C190.2 38.208 191.272 39.04 191.848 40.032C192.456 40.992 192.76 42.608 192.76 44.88C192.76 50.96 188.632 54 180.376 54H165.64V21.84ZM179.368 41.28H176.776V46.56H179.368C180.488 46.56 181.24 46.384 181.624 46.032C182.008 45.648 182.2 44.96 182.2 43.968C182.2 42.944 181.992 42.24 181.576 41.856C181.16 41.472 180.424 41.28 179.368 41.28ZM179.224 29.184H176.776V34.32H179.272C180.232 34.32 180.904 34.112 181.288 33.696C181.672 33.28 181.864 32.624 181.864 31.728C181.864 30.8 181.656 30.144 181.24 29.76C180.824 29.376 180.152 29.184 179.224 29.184ZM236.456 21.84L239.384 30.672L243.128 21.84H254.072L247.112 37.152L253.64 54H242.216L239.384 45.456L236.456 54H225.128L231.992 38.592L225.128 21.84H236.456Z" fill="black"/>
<path d="M205.356 37.92C205.356 40.64 205.612 42.608 206.124 43.824C206.668 45.008 207.772 45.6 209.436 45.6C211.132 45.6 212.236 45.008 212.748 43.824C213.26 42.64 213.516 40.672 213.516 37.92C213.516 35.136 213.26 33.168 212.748 32.016C212.268 30.832 211.18 30.24 209.484 30.24C207.788 30.24 206.668 30.848 206.124 32.064C205.612 33.248 205.356 35.2 205.356 37.92ZM224.748 37.92C224.748 43.776 223.532 48.032 221.1 50.688C218.668 53.312 214.78 54.624 209.436 54.624C204.124 54.624 200.236 53.296 197.772 50.64C195.34 47.984 194.124 43.744 194.124 37.92C194.124 32.064 195.34 27.824 197.772 25.2C200.204 22.544 204.092 21.216 209.436 21.216C214.78 21.216 218.668 22.544 221.1 25.2C223.532 27.824 224.748 32.064 224.748 37.92Z" fill="#0093FD"/>
</svg>
